<?xml version="1.0" encoding="UTF-8" standalone="no"?>
<!DOCTYPE svg PUBLIC "-//W3C//DTD SVG 1.1//EN" "http://www.w3.org/Graphics/SVG/1.1/DTD/svg11.dtd">
<svg width="100%" height="100%" viewBox="0 0 1080 1350" version="1.1" xmlns="http://www.w3.org/2000/svg" xmlns:xlink="http://www.w3.org/1999/xlink" xml:space="preserve" xmlns:serif="http://www.serif.com/" style="fill-rule:evenodd;clip-rule:evenodd;stroke-linejoin:round;stroke-miterlimit:2;">
    <path d="M514.418,239.44C523.024,257.15 533.827,276.638 535.29,280.204C535.571,280.889 539.467,290.389 543.358,284.727C543.401,284.664 559.046,252.712 562.774,246.353C567.41,238.444 571.135,221.374 581.037,225.868C583.159,226.831 618.815,247.928 620.819,252.158C623.286,257.366 622.922,258.167 604.712,294.259C552.973,396.802 552.268,398.065 547.341,406.896C546.216,408.913 543.986,417.409 537.834,413.431C536.231,412.394 522.468,383.524 513.166,366.089C511.511,362.987 463.789,269.481 460.615,261.546C455.98,249.958 461.855,249.672 493.317,229.262C494.211,228.682 501.073,223.903 504.317,225.221C505.61,225.746 507.06,226.336 514.419,239.44L514.418,239.44Z"/>
    <path d="M782.849,295.454C838.707,260.464 838.328,259.82 845.994,256.331C851.16,253.979 852.877,259.273 848.817,266.536C842.227,278.325 674.439,628.106 670.722,631.478C665.186,636.5 663.715,632.241 556.877,564.181C539.465,553.089 537.393,556.269 519.799,566.937C493.319,582.993 430.357,623.955 422.626,628.984C409.909,637.257 408.708,630.349 402.184,616.698C400.865,613.939 386.275,583.412 385.67,582.23C381.717,574.503 381.799,574.491 338.001,484.775C271.526,348.607 272.455,348.229 266.532,336.466C264.616,332.66 246.304,296.292 243.006,288.675C236.415,273.453 223.596,254.784 234.252,256.939C237.54,257.604 304.872,299.172 317.236,308.158C326.393,314.813 331.54,330.314 338.338,343.802C353.66,374.203 417.723,505.036 428.647,526.985C435.01,539.769 435.961,545.194 445.21,538.898C450.634,535.206 475.253,518.56 475.483,518.394C485.317,511.262 493.715,509.405 483.823,502.343C481.078,500.383 468.212,491.197 457.821,469.163C457.306,468.071 453.278,459.529 451.283,455.554C447.78,448.573 425.544,404.265 408.264,367.907C393.362,336.552 392.969,336.782 391.83,333.99C385.1,317.493 379.44,315.773 331.413,285.38C281.367,253.71 232.055,222.9 223.399,217.492C210.928,209.7 192.918,202.263 193.62,180.192C194.796,143.255 194.439,143.256 194.831,140.069C196.424,127.15 204.795,135.576 217.456,143.054C274.571,176.787 273.684,178.066 278.722,180.856C290.722,187.503 309.704,199.432 312.363,201.104C394.685,252.84 417.898,263.14 428.391,276.061C432.319,280.898 432.094,280.988 464.759,344.942C468.977,353.2 468.693,353.247 472.864,361.445C497.31,409.487 497.431,409.336 499.508,413.53C515.269,445.353 517.685,447.442 564.613,484.639C566.872,486.43 590.539,505.189 592.962,506.882C601.44,512.806 635.183,540.528 640.315,541.632C642.411,542.083 644.282,542.485 655.555,519.58C741.998,343.936 742.438,344.185 749.854,328.865C761.807,304.174 765.941,307.449 782.848,295.454L782.849,295.454Z"/>
    <path d="M764.501,275.849C756.55,281.533 746.449,287.165 744.832,288.068C742.013,289.64 742.124,289.786 710.734,309.622C695.503,319.247 695.89,320.935 677.525,357.57C650.911,410.66 618.919,479.572 614.674,482.473C609.966,485.69 602.275,477.584 579.812,460.138C566.469,449.775 563.321,447.922 570.217,434.167C573.769,427.083 597.786,379.18 615.192,345.907C651.549,276.411 648.823,273.221 666.423,263.168C667.923,262.311 685.057,251.383 701.16,242.019C719.413,231.404 718.785,230.519 737.079,219.918C743.112,216.422 742.788,215.911 811.369,174.346C815.938,171.577 850.431,150.672 868.277,139.39C872.919,136.456 884.632,128.79 885.294,136.907C886.158,147.488 887.419,188.872 884.982,194.978C880.672,205.777 876.413,205.504 827.73,236.681C824.685,238.631 771.445,271.631 766.548,274.666C766.387,274.766 766.396,274.754 764.501,275.848L764.501,275.849Z"/>
</svg>
